Elmo loves
his fuzzy, blue blanket, and would never let anything happen to it. A tug-of-war with his friend Zoe sends his blanket to a faraway land, and Elmo is in hot pursuit. Facing life without his cherished blanket, Elmo musters all of his courage and heads off on an action-packed rescue mission that plunges him into Grouchland.

Format : MPEG-4
Format profile : Base Media / Version 2
Codec ID : mp42
File size : 900 MiB
Duration : 1h 10mn
Overall bit rate : 1 794 Kbps
Encoded date : UTC 2010-03-24 11:41:44
Tagged date : UTC 2010-03-24 15:47:46
Writing application : HandBrake 0.9.3 2008112300

Video
ID : 1
Format : AVC
Format/Info : Advanced Video Codec
Format profile : Main@L4.0
Format settings, CABAC : Yes
Format settings, ReFrames : 3 frames
Codec ID : avc1
Codec ID/Info : Advanced Video Coding
Duration : 1h 10mn
Bit rate mode : Variable
Bit rate : 1 630 Kbps
Width : 702 pixels
Height : 552 pixels
Display aspect ratio : 16:9
Frame rate mode : Variable
Frame rate : 25.000 fps
Minimum frame rate : 12.500 fps
Maximum frame rate : 25.000 fps
Resolution : 8 bits
Colorimetry : 4:2:0
Scan type : Progressive
Bits/(Pixel*Frame) : 0.168
Stream size : 818 MiB (91%)


Audio
ID : 2
Format : AAC
Format/Info : Advanced Audio Codec
Format version : Version 4
Format profile : LC
Format settings, SBR : No
Codec ID : 40
Duration : 1h 10mn
Bit rate mode : Variable
Bit rate : 160 Kbps
Maximum bit rate : 242 Kbps
Channel(s) : 2 channels
Channel positions : L R
Sampling rate : 48.0 KHz
Stream size : 80.3 MiB (9%)
Language : English
Encoded date : UTC 2010-03-24 11:41:44
Tagged date : UTC 2010-03-24 15:47:37